<?xml version="1.0" encoding="UTF-8"?>
<svg id="Layer_1" data-name="Layer 1" xmlns="http://www.w3.org/2000/svg" viewBox="0 0 470.38 520.65">
  <defs>
    <style>
      .cls-1 {
        fill: #fff;
      }

      .cls-2 {
        isolation: isolate;
        opacity: .15;
      }
    </style>
  </defs>
  <g class="cls-2">
    <path d="m236.86,520.65c112.27,0,203.28-8.03,203.28-17.94s-91.01-17.94-203.28-17.94-203.28,8.03-203.28,17.94,91.01,17.94,203.28,17.94Z"/>
  </g>
  <path class="cls-1" d="m244.75,331.96c37.68,0,73.81,14.97,100.45,41.61,26.64,26.64,41.61,62.77,41.61,100.45v22.72H102.69v-22.72c0-37.68,14.97-73.81,41.61-100.45,26.64-26.64,62.77-41.61,100.45-41.61Z"/>
  <path class="cls-1" d="m244.75,331.96c-37.68,0-73.81,14.97-100.45,41.61-26.64,26.64-41.61,62.77-41.61,100.45v22.72h1.32c4.66-34.02,21.49-65.19,47.36-87.76,25.87-22.57,59.05-35.01,93.38-35.01s67.51,12.43,93.38,35.01c25.87,22.57,42.7,53.75,47.36,87.76h1.32v-22.72c0-37.68-14.97-73.81-41.61-100.45-26.64-26.64-62.77-41.61-100.45-41.61Z"/>
  <path d="m386.8,502.36H102.69c-3.11,0-5.63-2.52-5.63-5.63v-22.72c0-39.45,15.36-76.54,43.26-104.43,27.9-27.89,64.99-43.25,104.43-43.25s76.53,15.35,104.43,43.25c27.89,27.88,43.25,64.98,43.25,104.43v22.72c0,3.11-2.52,5.63-5.63,5.63Zm-278.49-11.25h272.86v-17.09c0-36.44-14.19-70.71-39.95-96.48-25.77-25.76-60.04-39.95-96.48-39.95s-70.7,14.19-96.47,39.95c-25.77,25.77-39.96,60.03-39.96,96.48v17.09Z"/>
  <path d="m244.75,403.34c31.1,0,56.32-18.95,56.32-42.33s-25.22-42.33-56.32-42.33-56.32,18.95-56.32,42.33,25.22,42.33,56.32,42.33Z"/>
  <path d="m244.75,318.68c-10.88-.73-21.74,1.69-31.28,6.97-9.54,5.28-17.36,13.2-22.53,22.8,5.14,9.64,12.95,17.58,22.49,22.89,9.55,5.3,20.42,7.74,31.32,7.01,10.9.73,21.77-1.7,31.32-7.01,9.55-5.3,17.36-13.25,22.49-22.89-5.16-9.6-12.98-17.52-22.53-22.8-9.54-5.28-20.4-7.7-31.28-6.97Z"/>
  <path d="m244.75,408.97c-34.16,0-61.95-21.52-61.95-47.96s27.79-47.95,61.95-47.95,61.95,21.51,61.95,47.95-27.8,47.96-61.95,47.96Zm0-84.66c-27.95,0-50.69,16.46-50.69,36.7s22.74,36.71,50.69,36.71,50.7-16.46,50.7-36.71-22.74-36.7-50.7-36.7Z"/>
  <path class="cls-1" d="m244.75,283.41c-4,0-7.96.79-11.65,2.32-3.69,1.53-7.05,3.78-9.87,6.61-2.82,2.83-5.06,6.2-6.58,9.89-1.52,3.7-2.29,7.66-2.28,11.66v33.96c0,8.05,3.2,15.78,8.9,21.48,5.7,5.7,13.42,8.9,21.48,8.9s15.78-3.2,21.48-8.9c5.7-5.7,8.9-13.42,8.9-21.48v-33.96c.02-4-.76-7.96-2.28-11.66-1.52-3.7-3.75-7.06-6.58-9.89-2.82-2.83-6.18-5.08-9.87-6.61s-7.65-2.32-11.65-2.32Z"/>
  <path d="m244.75,283.41c-8.06,0-15.78,3.2-21.48,8.9-5.7,5.7-8.9,13.42-8.9,21.48v7.17c0,8.05,3.2,15.78,8.9,21.48,5.7,5.7,13.42,8.9,21.48,8.9s15.78-3.2,21.48-8.9c5.7-5.7,8.9-13.42,8.9-21.48v-7.06c.02-4-.76-7.96-2.28-11.66-1.52-3.7-3.75-7.06-6.58-9.89-2.82-2.83-6.18-5.08-9.87-6.61s-7.65-2.32-11.65-2.32Z"/>
  <path d="m244.75,383.86c-9.62,0-18.66-3.75-25.45-10.54-6.8-6.8-10.55-15.85-10.55-25.45v-33.96c-.02-4.75.89-9.4,2.7-13.8,1.81-4.4,4.43-8.34,7.79-11.73,3.39-3.4,7.33-6.02,11.71-7.84,8.75-3.65,18.82-3.65,27.61,0,4.36,1.81,8.3,4.44,11.68,7.83,3.37,3.39,5.99,7.33,7.8,11.75,1.81,4.37,2.71,9.03,2.69,13.83v33.93c0,9.61-3.74,18.64-10.54,25.45-6.79,6.79-15.84,10.54-25.45,10.54Zm0-94.83c-3.28,0-6.46.64-9.48,1.9-3.02,1.24-5.73,3.06-8.06,5.39-2.3,2.32-4.1,5.03-5.35,8.07-1.24,3.02-1.86,6.22-1.85,9.5v33.98c0,6.61,2.58,12.82,7.25,17.5,9.34,9.34,25.65,9.34,34.99,0,4.67-4.68,7.24-10.89,7.24-17.5v-33.96c.02-3.31-.6-6.51-1.85-9.51-1.25-3.06-3.06-5.77-5.36-8.09-2.32-2.32-5.02-4.13-8.03-5.37-3.03-1.26-6.22-1.9-9.5-1.9Z"/>
  <path d="m161.77,502.36c-3.11,0-5.63-2.52-5.63-5.63v-28.82c0-3.11,2.52-5.63,5.63-5.63s5.63,2.52,5.63,5.63v28.82c0,3.11-2.52,5.63-5.63,5.63Z"/>
  <path d="m327.74,502.36c-3.11,0-5.63-2.52-5.63-5.63v-28.94c0-3.11,2.52-5.63,5.63-5.63s5.63,2.52,5.63,5.63v28.94c0,3.11-2.52,5.63-5.63,5.63Z"/>
  <g>
    <path d="m269.86,402.03c5.96,8.11,14.33,14.14,23.92,17.22,15.54,4.3,25.59-2.15,32.29,2.03-9.8-27.02-33-41.02-47.83-34.2-14.83,6.82-8.37,14.95-8.37,14.95Z"/>
    <path d="m326.06,426.91c-1.03,0-2.07-.29-2.99-.86-1.53-.96-4.58-.64-8.47-.23-5.54.6-13.12,1.41-22.32-1.15-11.01-3.53-20.26-10.19-26.95-19.31-.73-.98-3.45-5.13-2.14-10.62,1.23-5.17,5.5-9.46,12.69-12.77,6.78-3.11,15.09-2.93,23.37.53,13.83,5.78,25.83,19.56,32.1,36.86.82,2.26.12,4.79-1.75,6.3-1.02.84-2.29,1.25-3.54,1.25Zm-51.66-28.21c5.29,7.21,12.57,12.46,21.1,15.2,6.89,1.91,12.74,1.26,17.9.74,1.13-.12,2.24-.23,3.34-.32-5.51-10.03-13.41-17.9-21.85-21.44-5.35-2.23-10.43-2.47-14.32-.68-5.32,2.45-6.26,4.51-6.43,5.08-.21.73.19,1.34.24,1.42l-4.53,3.34,4.54-3.33Z"/>
  </g>
  <g>
    <path d="m256.71,402.51c-5.15,10.7-6.78,22.75-4.66,34.44,4.3,18.3,16.38,24.99,15.9,34.2,22.24-25.11,23.92-56.68,8.37-68.16-15.55-11.48-19.61-.48-19.61-.48Z"/>
    <path d="m267.95,476.77c-.71,0-1.44-.13-2.13-.42-2.21-.9-3.6-3.11-3.48-5.5.12-2.48-2-5.57-4.68-9.48-3.82-5.58-8.58-12.52-11.08-23.15-2.4-13.16-.65-26.2,5-38.03.59-1.38,2.9-5.85,8.41-7.48,5.59-1.71,12.23.24,19.67,5.74,6.85,5.06,11.2,13.4,12.27,23.51,1.8,17.12-5.58,36.91-19.76,52.91-1.09,1.24-2.63,1.9-4.21,1.9Zm-3.88-73.38c-.36,0-.62.04-.78.09-.9.23-1.31,1-1.37,1.15-.01.03-.12.29-.14.32-4.66,9.7-6.11,20.42-4.19,30.99,1.96,8.29,5.88,14.01,9.35,19.07,1.02,1.49,2.03,2.97,2.95,4.46,7.96-11.81,12.02-25.11,10.84-36.33-.74-7.02-3.42-12.43-7.75-15.63-4.78-3.53-7.57-4.12-8.9-4.12Zm-7.36-.88h.11-.11Z"/>
  </g>
  <g>
    <path d="m244.75,378.35c4.25,2.13,7.66,5.63,9.69,9.92,1.47,4.6,2.24,9.4,2.27,14.23,3.48,1.54,7.25,2.33,11.06,2.33s7.58-.79,11.06-2.33c2.46-1.57,4.57-3.64,6.2-6.06,1.63-2.42,2.74-5.16,3.27-8.03.53-2.87.46-5.82-.2-8.66-.66-2.84-1.9-5.52-3.64-7.86-8.13-10.52-25.71-12.91-39.7,6.46Z"/>
    <path d="m267.76,410.47c-4.63,0-9.11-.95-13.33-2.81-2.02-.89-3.34-2.89-3.35-5.11-.03-4.25-.7-8.47-2.01-12.55-1.21-2.46-3.74-5.04-6.85-6.62-1.47-.74-2.55-2.09-2.93-3.68-.4-1.6-.07-3.3.9-4.64,7.72-10.68,17.54-16.65,27.66-16.82h.42c8.1,0,15.6,3.7,20.63,10.22,2.28,3.07,3.82,6.41,4.67,10.02.84,3.64.92,7.32.26,10.96-.67,3.65-2.07,7.08-4.14,10.16-2.09,3.09-4.71,5.67-7.83,7.66-4.98,2.26-9.47,3.21-14.1,3.21Zm-5.61-11.99c4.71,1.29,9.87.87,14.4-1.11,1.06-.75,2.58-2.25,3.79-4.06,1.21-1.79,2.02-3.78,2.41-5.9.4-2.11.34-4.25-.15-6.37-.47-2.07-1.41-4.07-2.67-5.78-2.87-3.7-7.81-5.88-11.9-5.76-5.11.08-10.32,2.78-15.04,7.7,2.74,2.41,4.97,5.37,6.53,8.68,1.45,4.4,2.29,8.53,2.64,12.6Z"/>
  </g>
  <g>
    <path d="m244.75,41.26c-9.84,0-19.64,1.25-29.18,3.71-22.24,5.02-51.18,13.39-77.37,8.37-1.02,6.74-.66,13.63,1.07,20.23,1.73,6.6,4.78,12.78,8.97,18.16-13.64,19.66-20.94,43.03-20.93,66.96v61.46h234.85v-61.46c0-31.14-12.37-61.01-34.39-83.03-22.02-22.02-51.89-34.39-83.03-34.39Z"/>
    <path d="m362.17,225.78H127.33c-3.11,0-5.63-2.52-5.63-5.63v-61.46c-.02-23.86,6.78-46.89,19.7-66.85-3.45-5.15-5.98-10.8-7.57-16.85-1.93-7.39-2.33-14.96-1.19-22.49.23-1.52,1.06-2.87,2.31-3.75,1.25-.88,2.8-1.19,4.31-.93,21.83,4.19,46.64-1.65,66.6-6.36l8.47-1.97c9.82-2.53,20.11-3.84,30.41-3.85h.01c32.86,0,63.77,12.8,87.01,36.04,23.23,23.23,36.04,54.13,36.04,87.01v61.46c0,3.11-2.52,5.63-5.63,5.63Zm-229.22-11.25h223.59v-55.83c0-29.87-11.63-57.95-32.74-79.06-21.12-21.11-49.19-32.75-79.06-32.75-9.35.01-18.7,1.2-27.77,3.53l-8.53,1.98c-19.23,4.53-42.76,10.1-65.16,7.41-.1,4.14.38,8.27,1.45,12.33,1.54,5.89,4.22,11.31,7.97,16.12,1.51,1.94,1.59,4.64.18,6.67-13.05,18.82-19.94,40.86-19.92,63.75v55.84Z"/>
  </g>
  <g>
    <path class="cls-1" d="m374.73,211.18c-.58-4.39-2.48-8.5-5.45-11.79-2.97-3.29-6.86-5.6-11.17-6.62l-7.06-1.91c-5.2-1.47-9.77-4.6-13.01-8.93-3.24-4.32-4.97-9.59-4.93-14.99v-24.39c-.01-4.93-1.65-9.72-4.65-13.63-3-3.91-7.21-6.73-11.97-8.01-22.8,9.1-47.2,13.53-71.75,13.03-24.55.5-48.94-3.93-71.75-13.03-4.78,1.26-9.02,4.07-12.04,7.98-3.03,3.91-4.68,8.71-4.7,13.66v24.63c.05,5.4-1.68,10.67-4.93,14.99-3.24,4.32-7.81,7.46-13.01,8.93l-7.06,1.91c-4.31,1.03-8.2,3.34-11.17,6.63-2.97,3.29-4.87,7.4-5.45,11.79-.32,3.03,0,6.09.95,8.98.94,2.89,2.49,5.56,4.53,7.81,2.04,2.26,4.54,4.06,7.32,5.29,2.79,1.23,5.8,1.85,8.84,1.84h1.32c2.8,26.43,15.28,50.9,35.04,68.68,19.76,17.78,45.4,27.62,71.98,27.62s52.22-9.84,71.98-27.62c19.76-17.78,32.24-42.24,35.04-68.68h1.31c3.08.04,6.13-.58,8.94-1.81,2.82-1.23,5.34-3.05,7.4-5.34,2.06-2.29,3.61-4.98,4.54-7.92.93-2.93,1.23-6.03.88-9.08Z"/>
    <path d="m244.63,337.26c-28.02,0-54.92-10.32-75.75-29.06-19.62-17.67-32.38-41.47-36.26-67.46-2.55-.34-5.04-1.03-7.44-2.09-3.55-1.57-6.65-3.81-9.23-6.67-2.59-2.86-4.51-6.17-5.7-9.84-1.2-3.68-1.6-7.48-1.19-11.31.75-5.7,3.12-10.83,6.87-14.97,3.75-4.15,8.6-7.03,14.04-8.33l6.89-1.87c3.94-1.11,7.5-3.56,9.98-6.87,2.49-3.31,3.84-7.42,3.81-11.57v-24.67c.02-6.17,2.1-12.24,5.87-17.11,3.76-4.86,9.11-8.41,15.05-9.98,1.17-.31,2.4-.24,3.53.21,22.21,8.87,45.46,13.1,69.55,12.63,24.27.52,47.57-3.77,69.77-12.63,1.14-.46,2.38-.52,3.56-.21,5.91,1.6,11.22,5.16,14.96,10.02,3.74,4.87,5.8,10.92,5.81,17.05v24.4c-.03,4.18,1.32,8.29,3.81,11.62,2.47,3.31,6.03,5.76,10.02,6.88l7,1.9c5.29,1.25,10.14,4.14,13.88,8.29,3.75,4.15,6.12,9.27,6.86,14.82,0,.03,0,.07.01.1.44,3.88.07,7.73-1.11,11.44-1.19,3.71-3.11,7.07-5.72,9.97-2.64,2.91-5.77,5.17-9.34,6.73-2.38,1.04-4.93,1.74-7.53,2.07-3.88,25.98-16.64,49.78-36.25,67.44-20.83,18.75-47.73,29.07-75.76,29.07Zm-107.02-107.55c2.88,0,5.29,2.17,5.59,5.03,2.65,25.09,14.45,48.2,33.21,65.08,18.76,16.88,42.98,26.18,68.22,26.18s49.47-9.3,68.23-26.18c18.75-16.88,30.54-39.99,33.2-65.08.3-2.86,2.71-5.03,5.59-5.03h1.31c2.12.12,4.62-.43,6.69-1.34,2.1-.92,3.95-2.25,5.48-3.96,1.53-1.69,2.66-3.67,3.35-5.85.68-2.13.91-4.44.66-6.68-.44-3.26-1.84-6.27-4.04-8.71-2.21-2.45-5.09-4.15-8.31-4.92l-7.22-1.96c-6.41-1.81-12.09-5.7-16.04-10.99-3.96-5.28-6.11-11.81-6.06-18.4v-24.35c-.01-3.66-1.24-7.29-3.48-10.21-1.89-2.45-4.44-4.35-7.32-5.46-23.06,8.92-47.39,13.14-72.04,12.69-24.54.56-48.78-3.76-71.84-12.69-2.9,1.1-5.48,2.99-7.39,5.46-2.26,2.92-3.51,6.56-3.52,10.24v24.61c.05,6.56-2.1,13.1-6.06,18.37-3.95,5.27-9.62,9.17-15.98,10.96l-7.11,1.93c-3.39.81-6.26,2.51-8.47,4.96s-3.62,5.48-4.05,8.76c-.22,2.1.02,4.34.72,6.5.7,2.15,1.83,4.09,3.35,5.78,1.52,1.68,3.34,2.99,5.43,3.91,2.04.91,4.37,1.65,6.53,1.36h1.35Z"/>
  </g>
  <g>
    <path d="m179.82,208.67c0,1.82.54,3.6,1.55,5.12,1.01,1.51,2.45,2.69,4.13,3.39,1.68.7,3.53.88,5.32.52,1.79-.35,3.43-1.23,4.71-2.52s2.16-2.93,2.52-4.71c.35-1.79.17-3.64-.52-5.32-.7-1.68-1.88-3.12-3.39-4.13-1.51-1.01-3.29-1.55-5.12-1.55-1.21-.02-2.42.21-3.54.67-1.12.46-2.15,1.13-3,1.99-.86.86-1.54,1.88-1.99,3-.46,1.12-.68,2.33-.67,3.54Z"/>
    <path d="m189.02,223.51c-1.93,0-3.85-.38-5.67-1.13-2.72-1.13-5.02-3.02-6.65-5.47s-2.49-5.28-2.5-8.2c-.02-1.96.35-3.87,1.08-5.69.75-1.84,1.84-3.48,3.24-4.87,1.39-1.39,3.02-2.47,4.85-3.22,1.84-.74,3.8-1.09,5.74-1.08,2.86,0,5.72.86,8.16,2.49,2.45,1.64,4.34,3.94,5.47,6.65,1.13,2.73,1.42,5.69.84,8.58-.57,2.87-1.97,5.5-4.06,7.59-2.1,2.09-4.73,3.5-7.61,4.06-.96.19-1.93.29-2.9.29Zm-.05-18.41c-.52,0-.96.08-1.37.25-.41.17-.8.43-1.13.76-.34.33-.58.71-.76,1.14-.18.45-.26.9-.26,1.35v.08c0,.71.21,1.4.61,1.99.39.59.95,1.04,1.61,1.31.64.27,1.37.35,2.06.2.7-.14,1.34-.48,1.85-.99.49-.49.84-1.12.97-1.81.14-.71.07-1.42-.2-2.07-.27-.66-.73-1.22-1.32-1.62-.61-.41-1.45-.7-2.05-.6Z"/>
  </g>
  <g>
    <path d="m309.68,208.67c0,1.82-.54,3.6-1.55,5.12-1.01,1.51-2.45,2.69-4.13,3.39-1.68.7-3.53.88-5.32.52-1.79-.35-3.43-1.23-4.71-2.52s-2.16-2.93-2.52-4.71c-.35-1.79-.17-3.64.52-5.32.7-1.68,1.88-3.12,3.39-4.13,1.51-1.01,3.29-1.55,5.12-1.55,1.21-.02,2.42.21,3.54.67,1.12.46,2.15,1.13,3,1.99.86.86,1.54,1.88,1.99,3,.46,1.12.68,2.33.67,3.54Z"/>
    <path d="m300.49,223.51c-.98,0-1.96-.1-2.92-.29-2.87-.56-5.5-1.97-7.58-4.06-2.08-2.07-3.48-4.69-4.07-7.57-.57-2.91-.27-5.86.85-8.58,1.12-2.72,3.01-5.03,5.47-6.67,2.48-1.67,5.45-2.56,8.43-2.49,1.84,0,3.69.36,5.46,1.08,1.81.74,3.46,1.82,4.87,3.23,1.38,1.38,2.46,3.01,3.22,4.85.74,1.79,1.1,3.7,1.09,5.68,0,2.94-.87,5.79-2.49,8.23s-3.93,4.34-6.66,5.47c-1.81.75-3.73,1.13-5.66,1.13Zm.1-18.41c-.62-.04-1.51.2-2.1.59-.6.41-1.06.96-1.33,1.6-.27.66-.34,1.39-.21,2.09.14.68.48,1.32.99,1.82.51.5,1.13.84,1.82.97.68.14,1.43.07,2.08-.2.66-.27,1.21-.73,1.6-1.31.4-.59.6-1.28.6-1.99v-.05c0-.48-.08-.94-.24-1.35-.2-.46-.45-.85-.77-1.17-.33-.33-.71-.58-1.13-.75-.43-.18-.87-.26-1.32-.26Z"/>
  </g>
  <path d="m210.79,264.76c-.76.02-1.5.2-2.18.53-.68.33-1.28.8-1.76,1.39-.5.56-.87,1.23-1.07,1.96s-.25,1.49-.12,2.23c1.61,9.2,6.42,17.53,13.57,23.54,7.15,6.01,16.19,9.3,25.53,9.3s18.38-3.29,25.53-9.3c7.15-6.01,11.96-14.34,13.57-23.54.13-.74.09-1.5-.12-2.23s-.57-1.39-1.07-1.96c-.48-.58-1.08-1.06-1.76-1.39-.68-.33-1.43-.51-2.18-.53h-67.92Z"/>
  <path class="cls-1" d="m244.75,281.5c-10.8-.42-21.42,2.82-30.13,9.21,3.77,4.2,8.38,7.55,13.53,9.85,5.15,2.3,10.73,3.48,16.37,3.48s11.22-1.19,16.37-3.48c5.15-2.3,9.76-5.65,13.53-9.85-8.59-6.28-19.02-9.52-29.66-9.21Z"/>
  <path d="m244.75,309.32c-10.63,0-20.99-3.77-29.15-10.62-8.16-6.86-13.66-16.4-15.5-26.88-.27-1.6-.18-3.24.27-4.76.42-1.49,1.21-2.94,2.28-4.14.86-1.05,2.09-2.02,3.51-2.71,1.4-.68,2.96-1.06,4.51-1.09h68.04c1.69.03,3.26.42,4.66,1.1,1.4.68,2.63,1.64,3.63,2.87.9.98,1.69,2.42,2.14,3.97.43,1.48.53,3.11.26,4.69-1.85,10.55-7.35,20.1-15.51,26.94-8.16,6.85-18.51,10.62-29.15,10.62Zm-33.69-38.94c1.52,7.4,5.65,14.56,11.78,19.71,12.27,10.29,31.56,10.29,43.82,0,6.12-5.15,10.27-12.33,11.65-20.21l-67.25.5Z"/>
  <path class="cls-1" d="m173.72,255.07c6.6,0,11.96-3.21,11.96-7.17s-5.35-7.17-11.96-7.17-11.96,3.21-11.96,7.17,5.35,7.17,11.96,7.17Z"/>
  <path class="cls-1" d="m315.78,255.07c6.61,0,11.96-3.21,11.96-7.17s-5.35-7.17-11.96-7.17-11.96,3.21-11.96,7.17,5.35,7.17,11.96,7.17Z"/>
  <path class="cls-1" d="m121.23,169.81c0-12.68,55.24-22.96,123.52-22.96s123.52,10.28,123.52,22.96l-3.95-45.92c0-12.68-53.57-22.84-119.58-22.84s-119.58,10.16-119.58,22.84l-3.95,45.92Z"/>
  <path class="cls-1" d="m244.75,101.05c-66.01,0-119.58,10.16-119.58,22.84l-3.95,45.2c2.03-11.96,56.56-22.24,123.52-22.24h19.25c23.49-9.46,45.26-22.71,64.45-39.22-27.65-4.65-55.66-6.86-83.7-6.58Z"/>
  <path d="m368.27,175.43c-2.91,0-5.35-2.23-5.61-5.14l-.04-.53c-3.04-6-44.9-17.28-117.87-17.28s-114.53,11.2-117.9,17.57l-.02.24c-.25,3.01-2.87,5.29-5.85,5.14-3.01-.13-5.39-2.61-5.39-5.62,0-.45.03-.9.09-1.34l3.87-45.06c-.02-27.66,120.07-27.99,125.18-27.99s125.2.32,125.2,28.47l3.85,44.57c.07.44.1.88.1,1.34,0,3.01-2.37,5.5-5.39,5.62-.09,0-.16,0-.24,0Zm-123.52-68.76c-70.92,0-111.31,11.24-114,17.53l-2.72,32c31.54-14.78,112.48-14.99,116.72-14.99s85.16.21,116.71,14.98l-2.74-31.83c-2.66-6.46-43.05-17.7-113.97-17.7Z"/>
  <path class="cls-1" d="m379.75,66.25c-25.35-40.66-89.44-51.18-135-47.83-53.44,6.28-104.48,25.76-148.51,56.68-20.81,15.07-28.1,31.09-22,40.54,12.79,23.92,80.71,29.54,184.75-14.47,59.79,1.32,105.35,11,105.35,22.72,0,0,37.91-22.84,15.43-57.64Z"/>
  <path class="cls-1" d="m78.78,121.38c4.98-6.4,10.86-12.04,17.46-16.74,44.07-30.79,95.11-50.14,148.51-56.32,45.56-3.71,109.65,6.82,135,46.87,1.51,2.26,2.79,4.66,3.83,7.17,2.63-5.82,3.67-12.23,2.99-18.58-.67-6.35-3.03-12.4-6.82-17.54-25.35-40.66-89.44-51.18-135-47.83-53.44,6.28-104.48,25.76-148.51,56.68-20.81,15.07-28.1,31.09-22,40.54,1.23,2.12,2.76,4.06,4.54,5.74Z"/>
  <path d="m126.33,139.75c-30.17,0-49.92-8.11-57.06-21.45-8.09-12.51,1.1-31.41,23.66-47.75,44.72-31.4,96.97-51.34,151.16-57.71,48.17-3.53,113.64,7.55,140.42,50.4,7.22,11.18,9.57,22.48,7,33.57-4.59,19.85-23.48,31.42-24.28,31.91-1.74,1.05-3.91,1.08-5.67.08-1.77-1-2.86-2.87-2.86-4.9-2.12-4.85-34.22-15.52-98.64-17.06-55.16,23.2-100.69,32.92-133.73,32.92ZM261.05,23.45c-5.39,0-10.69.2-15.88.58-52.11,6.13-102.57,25.39-145.7,55.67-18.64,13.5-24.44,26.78-20.51,32.88,10.47,19.51,73.98,27.33,177.84-16.6.74-.31,1.51-.46,2.31-.45,16.22.36,89.1,2.92,106.92,20.13,4.91-4.07,12.28-11.59,14.54-21.48,1.84-8-.03-16.38-5.53-24.89-.02-.03-.03-.05-.04-.08-20.13-32.27-69.23-45.78-113.94-45.78Zm108.91,100.43h.11-.11Z"/>
  <path d="m258.98,106.8c-2.19,0-4.26-1.29-5.18-3.42-1.22-2.86.11-6.17,2.98-7.38,15.84-6.74,32.76-14.72,50.33-23.75,2.77-1.41,6.17-.33,7.57,2.43,1.43,2.76.33,6.15-2.43,7.58-17.8,9.14-34.98,17.25-51.07,24.09-.71.31-1.46.45-2.2.45Z"/>
  <g>
    <path class="cls-1" d="m246.28,31.72c10.88-1.3,19.01-8.15,18.16-15.3-.86-7.15-10.37-11.88-21.26-10.58-10.89,1.3-19.02,8.15-18.16,15.3.86,7.15,10.37,11.88,21.26,10.58Z"/>
    <path d="m242.65,37.57c-12.26,0-22.1-6.44-23.22-15.76-.64-5.32,1.78-10.72,6.64-14.82,4.26-3.59,10.1-5.98,16.44-6.74,14.3-1.68,26.28,5.12,27.51,15.5.64,5.32-1.78,10.73-6.64,14.82-4.25,3.59-10.09,5.98-16.43,6.74h0c-1.46.17-2.9.26-4.3.26Zm3.63-5.85h.11-.11Zm.51-20.47c-.96,0-1.93.05-2.93.18-4.13.49-7.97,2.01-10.53,4.17-.9.76-2.97,2.75-2.71,4.87.42,3.47,6.96,6.63,15,5.67,4.12-.49,7.96-2.02,10.53-4.18.9-.76,2.97-2.75,2.71-4.87-.37-3.04-5.4-5.84-12.07-5.84Z"/>
  </g>
  <path class="cls-1" d="m44.46,496.74s-79.52-90.64-11-101.04c74.26-11.12,155.45,101.04,155.45,101.04H44.46Z"/>
  <path class="cls-1" d="m33.46,429.77c46.87-7.06,96.26,34.92,126.39,66.96h28.58s-80.72-112.16-155.45-101.04c-30.37,4.66-31.69,24.87-23.92,46.16,2.96-3.65,6.67-6.62,10.88-8.7,4.21-2.08,8.82-3.24,13.52-3.37Z"/>
  <path d="m188.91,502.36H44.46c-1.62,0-3.16-.7-4.23-1.91-5.13-5.86-49.85-58.11-38.34-89.63,4.11-11.25,14.45-18.21,30.72-20.68,76.88-11.53,157.46,98.61,160.85,103.3,1.24,1.71,1.42,3.98.46,5.86s-2.9,3.07-5.01,3.07Zm-141.87-11.25h130.38c-20.87-25.87-85.12-98.41-143.12-89.85-12.06,1.84-19.2,6.22-21.83,13.42-7.51,20.55,21,60.39,34.58,76.43Z"/>
  <g>
    <path d="m82.11,440.73c3.37-4.82-1.4-13.97-10.66-20.44-9.25-6.47-19.49-7.82-22.86-3-3.37,4.82,1.4,13.97,10.66,20.44,9.25,6.47,19.49,7.82,22.86,3Z"/>
    <path d="m75.11,449.23c-5.74,0-12.56-2.32-19.09-6.88-5.2-3.65-9.4-8.21-11.83-12.86-2.98-5.73-3.07-11.35-.21-15.43,5.32-7.58,18.51-6.9,30.69,1.62,5.2,3.65,9.4,8.21,11.83,12.86,2.99,5.73,3.07,11.35.22,15.43h0c-2.47,3.53-6.64,5.26-11.61,5.26Zm7-8.5h.11-.11Zm-26.73-20.68c-1.23,0-2,.22-2.18.47-.09.12-.29,1.35.97,3.77,1.58,3.02,4.61,6.24,8.3,8.83,8.22,5.76,14.44,5.22,15.02,4.39.09-.12.28-1.35-.98-3.77-1.58-3.02-4.61-6.24-8.3-8.83-5.51-3.86-10.22-4.86-12.84-4.86Z"/>
  </g>
  <g>
    <path class="cls-1" d="m137.35,469.99c3.37-4.82-1.4-13.97-10.66-20.44-9.25-6.47-19.49-7.82-22.86-3-3.37,4.82,1.4,13.97,10.66,20.44,9.25,6.47,19.49,7.82,22.86,3Z"/>
    <path d="m130.35,478.49c-5.74,0-12.56-2.32-19.09-6.88-5.2-3.65-9.4-8.21-11.83-12.86-2.98-5.73-3.07-11.35-.21-15.43,5.31-7.57,18.5-6.89,30.69,1.62,5.2,3.65,9.4,8.21,11.83,12.86,2.98,5.73,3.07,11.35.21,15.43-2.47,3.52-6.63,5.26-11.61,5.26Zm-19.73-29.18c-1.23,0-2,.22-2.18.47-.09.12-.29,1.35.97,3.77,1.58,3.02,4.61,6.24,8.3,8.83,8.08,5.66,14.45,5.17,15.02,4.39.09-.12.29-1.35-.97-3.77-1.58-3.02-4.61-6.24-8.3-8.83-5.51-3.86-10.22-4.86-12.84-4.86Z"/>
  </g>
  <g>
    <path class="cls-1" d="m424.59,393.18l-25.11-6.22,17.34-82.99,30.97,7.65-23.2,81.55Z"/>
    <path d="m424.6,398.81c-.44,0-.9-.05-1.35-.16l-25.11-6.22c-2.93-.73-4.77-3.65-4.15-6.62l17.33-82.98c.31-1.49,1.22-2.79,2.51-3.6,1.31-.81,2.85-1.06,4.35-.7l30.97,7.65c1.48.36,2.75,1.32,3.52,2.64.77,1.32.96,2.89.54,4.36l-23.19,81.55c-.69,2.47-2.95,4.09-5.41,4.09Zm-18.5-16l14.57,3.6,20.11-70.71-19.65-4.86-15.04,71.97Z"/>
  </g>
  <g>
    <path d="m424.66,393.09l-25.2-6.19-23.55,95.8,25.2,6.19,23.55-95.8Z"/>
    <path d="m401.11,494.52c-.45,0-.9-.05-1.34-.16l-25.2-6.2c-3.02-.74-4.87-3.79-4.12-6.8l23.54-95.79c.74-3.01,3.78-4.85,6.8-4.12l25.2,6.19c1.45.35,2.7,1.27,3.47,2.55s1.01,2.8.65,4.25l-23.54,95.8c-.35,1.45-1.27,2.7-2.55,3.47-.88.54-1.89.81-2.91.81Zm-18.4-15.95l14.28,3.52,20.86-84.88-14.28-3.51-20.86,84.87Z"/>
  </g>
  <g>
    <path class="cls-1" d="m416.82,303.97c-7.77-14.83,2.15-33,13.51-42.33,7.24-5.54,12.51-13.25,15.07-22,7.09,4.93,12.58,11.82,15.81,19.83,3.23,8.01,4.05,16.78,2.36,25.25-.69,5.29-2.42,10.39-5.08,15.01-2.67,4.62-6.22,8.66-10.46,11.9l-31.21-7.65Z"/>
    <path d="m448.03,317.26c-.45,0-.9-.05-1.34-.16l-31.21-7.65c-1.57-.38-2.89-1.42-3.64-2.85-8.91-17,.76-37.67,14.93-49.3,6.47-4.96,11-11.57,13.24-19.23.51-1.74,1.81-3.12,3.53-3.73,1.69-.61,3.58-.35,5.08.69,8.02,5.57,14.18,13.3,17.82,22.35,3.65,9.05,4.57,18.89,2.66,28.45-.71,5.68-2.66,11.43-5.73,16.72-3.06,5.3-7.07,9.86-11.91,13.56-.99.76-2.2,1.15-3.42,1.15Zm-27.2-18.09l25.81,6.33c2.77-2.47,5.11-5.34,6.99-8.58,2.31-3.99,3.78-8.33,4.36-12.9,1.55-7.8.84-15.42-2-22.43-1.9-4.72-4.68-8.98-8.2-12.57-3.26,6.68-8.02,12.51-14.03,17.11-9.59,7.89-17.02,21.83-12.92,33.05Z"/>
  </g>
  <g>
    <path d="m420.89,272.05c6.13,3.52,12.74,6.13,19.61,7.77,7.81,1.96,15.89,2.65,23.92,2.03,1-8.08-.23-16.27-3.53-23.71-3.31-7.44-8.58-13.83-15.24-18.5-2.55,8.75-7.83,16.46-15.07,22-3.74,2.95-7.01,6.46-9.69,10.4Z"/>
    <path d="m458.7,287.7c-6.58,0-13.14-.81-19.57-2.42-7.33-1.75-14.43-4.56-21.05-8.36-1.35-.78-2.33-2.09-2.68-3.62-.35-1.53-.05-3.13.84-4.43,3-4.42,6.65-8.34,10.84-11.65,6.41-4.9,10.92-11.5,13.16-19.16.52-1.74,1.82-3.13,3.54-3.73,1.73-.6,3.62-.33,5.09.7,7.51,5.24,13.44,12.44,17.17,20.82,3.71,8.36,5.1,17.58,3.98,26.68-.32,2.66-2.48,4.73-5.15,4.93-2.04.15-4.1.23-6.14.23Zm-29.13-17.53c3.93,1.77,8.02,3.18,12.23,4.18,5.69,1.42,11.44,2.02,17.31,2.1.01-5.51-1.13-10.97-3.39-16.02-1.89-4.25-4.51-8.1-7.72-11.4-3.26,6.68-8.02,12.49-14.03,17.08-1.56,1.24-3.03,2.59-4.41,4.06Z"/>
  </g>
  <path class="cls-1" d="m378.92,392.35c4.74,1.17,8.83,4.17,11.36,8.35,2.53,4.18,3.3,9.19,2.13,13.93l-19.21,78.15c-7.21-1.77-13.41-6.33-17.26-12.68-3.84-6.35-5.01-13.96-3.24-21.17l14.76-60.03c.68-2.37,2.26-4.38,4.4-5.6,2.14-1.22,4.68-1.56,7.06-.94Z"/>
  <path class="cls-1" d="m378.92,392.34c-1.24-.4-2.55-.53-3.84-.39-1.29.14-2.54.55-3.67,1.2-1.13.65-2.1,1.54-2.87,2.59-.77,1.05-1.3,2.26-1.57,3.53l-5.5,22.24c.29-1.26.83-2.46,1.6-3.5.77-1.04,1.74-1.92,2.87-2.57,1.12-.65,2.37-1.06,3.65-1.21,1.29-.15,2.59-.03,3.83.35,2.37.56,4.6,1.58,6.57,3.02,1.97,1.43,3.63,3.24,4.89,5.33,1.26,2.08,2.09,4.39,2.44,6.8.35,2.41.23,4.86-.38,7.22l5.5-22.24c.59-2.36.71-4.8.35-7.21-.36-2.4-1.19-4.71-2.45-6.79-1.26-2.08-2.91-3.89-4.87-5.32-1.96-1.44-4.18-2.47-6.54-3.05Z"/>
  <path d="m373.2,498.41c-.44,0-.89-.05-1.34-.16-8.59-2.11-16.15-7.66-20.73-15.23-4.65-7.68-6.03-16.71-3.89-25.42l14.76-60.04c1.15-4.01,3.64-7.18,7.06-9.14,3.44-1.96,7.43-2.52,11.24-1.51,6.13,1.52,11.53,5.47,14.79,10.88,3.33,5.51,4.31,11.97,2.78,18.19l-19.21,78.15c-.63,2.57-2.92,4.29-5.46,4.29Zm3.35-100.73c-.67,0-1.33.16-1.91.49-.86.49-1.49,1.31-1.77,2.28l-14.71,59.82c-1.4,5.72-.46,11.87,2.59,16.91,2.06,3.41,5.02,6.2,8.5,8.08l17.69-71.98c.81-3.31.29-6.75-1.48-9.68-1.74-2.88-4.62-4.99-7.88-5.79-.02,0-.04-.01-.07-.01-.32-.09-.65-.12-.97-.12Z"/>
  <path class="cls-1" d="m422.92,420.09l-22.72-5.74c-3.5-.88-7.2-.35-10.31,1.47-3.11,1.82-5.38,4.8-6.32,8.28-.94,3.48-.48,7.19,1.29,10.33,1.77,3.14,4.7,5.46,8.17,6.46-3.43-.47-6.91.36-9.75,2.34-2.84,1.98-4.83,4.96-5.57,8.34-.74,3.38-.18,6.92,1.58,9.9,1.75,2.98,4.57,5.2,7.88,6.2-1.76-.43-3.59-.51-5.38-.24-1.79.27-3.51.9-5.06,1.84-1.55.94-2.9,2.17-3.97,3.63-1.07,1.46-1.85,3.12-2.28,4.88-.43,1.76-.51,3.59-.24,5.38.27,1.79.9,3.51,1.84,5.06.94,1.55,2.17,2.9,3.63,3.97,1.46,1.07,3.12,1.85,4.88,2.28l23.08,5.62c6.74,1.66,13.86.58,19.8-3.01,5.94-3.59,10.22-9.39,11.88-16.12l7.18-29.18c1.66-6.74.58-13.86-3.01-19.8-3.59-5.94-9.39-10.22-16.13-11.88h-.48Z"/>
  <path class="cls-1" d="m422.92,420.09l-22.72-5.74c-1.76-.43-3.58-.5-5.37-.22-1.79.28-3.5.91-5.05,1.85-1.54.94-2.89,2.18-3.95,3.65-1.06,1.46-1.83,3.12-2.25,4.88-.66,2.3-.66,4.75,0,7.06,1.64-1.73,3.71-3.01,5.99-3.7,2.29-.69,4.71-.78,7.04-.25l23.2,5.74c3.33.81,6.47,2.27,9.24,4.3,2.77,2.03,5.1,4.58,6.88,7.51,1.78,2.93,2.96,6.19,3.48,9.58.52,3.39.36,6.85-.46,10.18l3.23-13.15c.82-3.34.97-6.82.45-10.22-.52-3.4-1.71-6.67-3.5-9.61-1.79-2.94-4.14-5.51-6.92-7.54-2.78-2.03-5.93-3.5-9.28-4.31Z"/>
  <path d="m410,506.48c-2.56,0-5.13-.31-7.67-.93l-23.07-5.62c-2.54-.63-4.84-1.71-6.89-3.22-2.04-1.49-3.77-3.37-5.1-5.59-1.32-2.15-2.19-4.55-2.58-7.1-.38-2.54-.27-5.08.33-7.56.63-2.54,1.71-4.84,3.22-6.89,1.52-2.07,3.4-3.78,5.59-5.1.16-.11.33-.21.51-.3-2.4-4.19-3.15-9.07-2.12-13.78,1.03-4.78,3.82-8.96,7.84-11.76.19-.12.36-.24.55-.36-.23-.35-.44-.71-.65-1.08-2.51-4.45-3.15-9.63-1.81-14.56,1.32-4.91,4.48-9.07,8.9-11.66,4.42-2.57,9.58-3.32,14.53-2.08l22.06,5.57c.38.02.76.08,1.12.16,8.23,2.04,15.19,7.18,19.59,14.44,4.39,7.28,5.69,15.82,3.66,24.06l-7.18,29.17c-2.04,8.26-7.18,15.22-14.45,19.61-5.01,3.03-10.64,4.58-16.36,4.58Zm-26.11-33.58c-.42,0-.82.03-1.24.1-1.07.16-2.08.53-3.01,1.09-.9.55-1.7,1.29-2.33,2.14-.64.87-1.1,1.85-1.36,2.91-.25,1.01-.3,2.09-.13,3.15.16,1.08.53,2.08,1.08,2.98.57.95,1.29,1.74,2.14,2.35.88.65,1.86,1.11,2.92,1.37l23.05,5.62c5.32,1.31,10.86.47,15.55-2.36,4.7-2.84,8.02-7.33,9.34-12.66l7.18-29.16c1.31-5.33.47-10.86-2.36-15.55-2.76-4.56-7.07-7.81-12.18-9.21-.37-.03-.75-.08-.99-.14l-22.72-5.74c-2.09-.53-4.24-.21-6.09.88-1.86,1.09-3.18,2.81-3.73,4.88-.57,2.08-.3,4.24.75,6.11,1.06,1.87,2.77,3.22,4.82,3.81,2.84.82,4.56,3.69,3.95,6.57-.62,2.9-3.42,4.73-6.28,4.41-2.03-.25-4.07.23-5.77,1.4-1.67,1.18-2.84,2.92-3.28,4.92-.44,2-.11,4.08.93,5.85,1.03,1.77,2.69,3.08,4.67,3.67,2.91.9,4.59,3.95,3.77,6.89-.8,2.93-3.85,4.67-6.78,3.96-.63-.16-1.26-.24-1.91-.24Z"/>
</svg>